<?xml version="1.0" encoding="UTF-8" standalone="no"?>
<svg xmlns:svg="http://www.w3.org/2000/svg" 
  xmlns="http://www.w3.org/2000/svg" version="1.0" width="250" height="350">
  <defs>
    <linearGradient id="bg_gradient" x1="0%" y1="0%" x2="100%" y2="100%">
      <stop offset="0%" style="stop-color:rgb(230, 240, 200);stop-opacity:1"></stop>
      <stop offset="100%" style="stop-color:rgb(250, 250, 230);stop-opacity:1"></stop>
    </linearGradient>
  </defs>
  <rect x="0" y="0" width="100%" height="100%" fill="url(#bg_gradient)" opacity="0.7"></rect>
  <!-- <rect id="bg_shadow" rx="20" ry="20" x="6" y="6" width="242" height="342" opacity="0.8" stroke="black" stroke-width="4"></rect> -->

  <!-- <rect id="bg" rx="20" ry="20" fill="url(#bg_gradient)" stroke="black" opacity="1" stroke-width="4" x="2" y="2" width="242" height="342" /> -->

  <g id="frame">
    <path fill="none" opacity="0.6" stroke-width="4" stroke="black" d="M 112 70 l 80 0 a 10 10 180 0 0 0 -20 a 7 7 180 0 0 0 14 a 4 4 180 0 0 0 -8"></path>
    <path fill="none" opacity="0.6" stroke-width="4" stroke="black" transform="rotate(180) translate(-250 -350)" d="M 112 70 l 80 0 a 10 10 180 0 0 0 -20 a 7 7 180 0 0 0 14 a 4 4 180 0 0 0 -8"></path>
    <path fill="none" opacity="0.6" stroke-width="4" stroke="black" d="M 200,240 l 0,-163 a 10 10 180 0 1 20 0 a 7 7 180 0 1 -14 0 a 4 4 180 0 1 8 0"></path>
    <path fill="none" opacity="0.6" stroke-width="4" stroke="black" transform="rotate(180) translate(-250 -350)" d="M 200,240 l 0,-163 a 10 10 180 0 1 20 0 a 7 7 180 0 1 -14 0 a 4 4 180 0 1 8 0"></path>
  </g>
</svg>
